<?xml version="1.0" encoding="UTF-8" standalone="no"?>
<!DOCTYPE svg PUBLIC "-//W3C//DTD SVG 1.1//EN" "http://www.w3.org/Graphics/SVG/1.1/DTD/svg11.dtd">
<svg width="100%" height="100%" viewBox="0 0 424 224" version="1.1" xmlns="http://www.w3.org/2000/svg" xmlns:xlink="http://www.w3.org/1999/xlink" xml:space="preserve" xmlns:serif="http://www.serif.com/" style="fill-rule:evenodd;clip-rule:evenodd;stroke-linejoin:round;stroke-miterlimit:2;">
    <g transform="matrix(1,0,0,1,-188,-593)">
        <g transform="matrix(1,0,0,0.75,0,480)">
            <g transform="matrix(1,0,0,1.33333,0,-112.407)">
                <path d="M244.724,402.002L226.114,402.002C205.572,402.002 188.894,385.324 188.894,364.782L188.894,253.122L188.895,253.242C188.959,263.418 197.208,271.667 207.384,271.732L207.504,271.732L218.288,271.732C211.035,256.892 213.572,238.455 225.902,226.126L254.029,197.998C254.029,197.998 282.157,226.126 282.157,226.126C294.486,238.455 297.023,256.892 289.77,271.732L300.554,271.732L300.674,271.732C310.85,271.667 319.099,263.418 319.164,253.242L319.164,253.122L319.164,364.782C319.164,385.324 302.486,402.002 281.944,402.002L263.334,402.002L263.334,420.612L244.724,420.612L244.724,402.002ZM244.724,383.392L244.724,364.782C244.724,354.511 236.385,346.172 226.114,346.172L207.504,346.172L207.504,364.782C207.504,375.053 215.843,383.392 226.114,383.392L244.724,383.392ZM263.334,364.782C263.334,354.511 271.673,346.172 281.944,346.172L300.554,346.172L300.554,364.782C300.554,375.053 292.215,383.392 281.944,383.392L263.334,383.392L263.334,364.782ZM263.334,308.952C263.334,298.681 271.673,290.342 281.944,290.342L300.554,290.342L300.554,308.952C300.554,319.223 292.215,327.562 281.944,327.562L263.334,327.562L263.334,308.952ZM244.724,308.952C244.724,298.681 236.385,290.342 226.114,290.342L207.504,290.342L207.504,308.952C207.504,319.223 215.843,327.562 226.114,327.562L244.724,327.562L244.724,308.952ZM267.188,267.412C274.451,260.15 274.451,248.357 267.188,241.094C267.188,241.094 254.029,227.935 254.029,227.935L240.87,241.094C233.607,248.357 233.607,260.15 240.87,267.412L254.029,280.572L267.188,267.412Z" style="fill:white;"/>
            </g>
            <g transform="matrix(1,0,0,1.33333,95.1496,-261.61)">
                <g transform="matrix(144,0,0,144,256.612,491.233)">
                    <path d="M0.231,-0.512C0.246,-0.522 0.263,-0.53 0.281,-0.535C0.301,-0.54 0.32,-0.543 0.339,-0.543C0.352,-0.543 0.363,-0.542 0.374,-0.54L0.374,-0.428C0.362,-0.431 0.349,-0.433 0.336,-0.433C0.309,-0.433 0.284,-0.427 0.262,-0.415C0.238,-0.402 0.22,-0.383 0.209,-0.359C0.197,-0.335 0.191,-0.307 0.191,-0.274L0.191,-0L0.07,-0L0.07,-0.54L0.177,-0.54L0.177,-0.454C0.192,-0.479 0.21,-0.499 0.231,-0.512Z" style="fill:white;fill-rule:nonzero;"/>
                </g>
                <g transform="matrix(144,0,0,144,314.068,491.233)">
                    <path d="M0.353,-0.555C0.438,-0.555 0.495,-0.528 0.524,-0.472C0.552,-0.418 0.566,-0.361 0.566,-0.302L0.566,-0L0.444,-0L0.444,-0.26C0.444,-0.381 0.402,-0.442 0.317,-0.442C0.281,-0.442 0.251,-0.43 0.227,-0.405C0.203,-0.38 0.191,-0.338 0.191,-0.278L0.191,-0L0.069,-0L0.069,-0.72L0.177,-0.72L0.177,-0.48C0.218,-0.53 0.277,-0.555 0.353,-0.555Z" style="fill:white;fill-rule:nonzero;"/>
                </g>
                <g transform="matrix(144,0,0,144,404.212,491.233)">
                    <path d="M0.496,-0.455C0.505,-0.438 0.51,-0.42 0.513,-0.402C0.515,-0.383 0.516,-0.36 0.516,-0.331L0.516,-0L0.411,-0L0.411,-0.073C0.388,-0.043 0.361,-0.021 0.331,-0.007C0.3,0.008 0.264,0.015 0.221,0.015C0.183,0.015 0.15,0.008 0.123,-0.007C0.096,-0.022 0.075,-0.041 0.061,-0.066C0.047,-0.091 0.04,-0.118 0.04,-0.148C0.04,-0.187 0.05,-0.221 0.07,-0.248C0.09,-0.275 0.121,-0.295 0.163,-0.31C0.189,-0.318 0.22,-0.325 0.256,-0.332C0.292,-0.338 0.339,-0.345 0.398,-0.353C0.396,-0.385 0.386,-0.408 0.369,-0.423C0.351,-0.438 0.324,-0.445 0.287,-0.445C0.26,-0.445 0.236,-0.439 0.215,-0.427C0.193,-0.414 0.178,-0.395 0.17,-0.369L0.059,-0.404C0.073,-0.451 0.099,-0.488 0.138,-0.515C0.176,-0.542 0.226,-0.555 0.288,-0.555C0.393,-0.555 0.462,-0.522 0.496,-0.455ZM0.384,-0.171C0.391,-0.188 0.396,-0.216 0.397,-0.255C0.358,-0.249 0.324,-0.243 0.295,-0.237C0.265,-0.232 0.241,-0.226 0.224,-0.221C0.202,-0.212 0.186,-0.203 0.174,-0.192C0.164,-0.181 0.158,-0.167 0.158,-0.15C0.158,-0.129 0.166,-0.113 0.181,-0.1C0.196,-0.087 0.217,-0.081 0.245,-0.081C0.282,-0.081 0.313,-0.09 0.338,-0.109C0.362,-0.128 0.377,-0.148 0.384,-0.171Z" style="fill:white;fill-rule:nonzero;"/>
                </g>
                <g transform="matrix(144,0,0,144,487.156,491.233)">
                    <path d="M0.08,-0.734L0.2,-0.734L0.2,-0.624L0.08,-0.624L0.08,-0.734ZM0.08,-0.54L0.2,-0.54L0.2,-0L0.08,-0L0.08,-0.54Z" style="fill:white;fill-rule:nonzero;"/>
                </g>
            </g>
        </g>
    </g>
</svg>
